<svg id="CSH-06" xmlns="http://www.w3.org/2000/svg" width="268.196" height="116.568" viewBox="0 0 268.196 116.568">
  <path id="Path_155" data-name="Path 155" d="M116.568,58.284A58.284,58.284,0,1,1,58.284,0,58.351,58.351,0,0,1,116.568,58.284Zm-107.709,0A49.425,49.425,0,1,0,58.284,8.859,49.482,49.482,0,0,0,8.859,58.284Z" fill="#fff"/>
  <path id="Path_156" data-name="Path 156" d="M13.02,70.72A44.94,44.94,0,1,0,57.97,25.78,44.991,44.991,0,0,0,13.02,70.72Zm44.95-36.07A36.07,36.07,0,1,1,21.9,70.72a36.112,36.112,0,0,1,36.07-36.07Z" transform="translate(0.314 0.622)" fill="#fff"/>
  <g id="Group_1399" data-name="Group 1399" transform="translate(130.138 23.023)">
    <path id="Path_157" data-name="Path 157" d="M144.716,56.993a19.188,19.188,0,0,1-7.2-1.4,16.808,16.808,0,0,1-5.592-3.718A16.432,16.432,0,0,1,128.33,46.4a18.22,18.22,0,0,1,0-13.314,16.591,16.591,0,0,1,3.595-5.469,16.808,16.808,0,0,1,5.592-3.718,19.188,19.188,0,0,1,7.2-1.4h4.435v4.189h-4.291a12.942,12.942,0,0,0-9.289,3.779,12.587,12.587,0,0,0-2.734,4.117,14.041,14.041,0,0,0,0,10.323,12.444,12.444,0,0,0,6.852,6.872,13.941,13.941,0,0,0,5.172,1.034h4.291V57h-4.435Z" transform="translate(-127.07 -22.48)" fill="#fff"/>
    <path id="Path_158" data-name="Path 158" d="M153.911,56.994V52.8h14.932A5.274,5.274,0,0,0,171.8,52a5.74,5.74,0,0,0,1.925-2.1,5.624,5.624,0,0,0,.686-2.714,5.894,5.894,0,0,0-.666-2.734,5.147,5.147,0,0,0-1.874-2.018,5.357,5.357,0,0,0-2.929-.768h-6.5a10.552,10.552,0,0,1-5.131-1.208A8.88,8.88,0,0,1,153.84,37.1a9.425,9.425,0,0,1-1.26-4.854,10.285,10.285,0,0,1,1.209-4.977,9.01,9.01,0,0,1,3.4-3.5,9.867,9.867,0,0,1,5.049-1.28h14.645v4.189H162.688a5.278,5.278,0,0,0-2.857.768,5.171,5.171,0,0,0-1.874,1.977,5.541,5.541,0,0,0-.031,5.131,4.755,4.755,0,0,0,1.823,1.946,5.24,5.24,0,0,0,2.786.737h6.657a10.857,10.857,0,0,1,5.326,1.229,8.561,8.561,0,0,1,3.4,3.349,9.745,9.745,0,0,1,1.188,4.834A11.422,11.422,0,0,1,177.9,52a9.111,9.111,0,0,1-3.421,3.677A9.643,9.643,0,0,1,169.4,57H153.922Z" transform="translate(-126.454 -22.48)" fill="#fff"/>
    <path id="Path_159" data-name="Path 159" d="M184.2,56.994V22.48h4.732V37.32H207.12V22.48h4.732V56.994H207.12V41.519H188.932V56.994Z" transform="translate(-125.691 -22.48)" fill="#fff"/>
  </g>
  <text id="საჯარო_მოხელეების_ჰაბი" data-name="საჯარო მოხელეების ჰაბი" transform="translate(130.155 80.879) rotate(0.17)" fill="#fff" font-size="7" font-family="SegoeUI, Segoe UI" letter-spacing="0.16em"><tspan x="0" y="0">საჯარო</tspan><tspan y="0" font-family="ArialMT, Arial"> </tspan><tspan y="0">მოხელეების</tspan><tspan y="0" font-family="ArialMT, Arial"> </tspan><tspan y="0">ჰაბი</tspan></text>
  <text id="საქართველო" transform="translate(130.142 103.678) rotate(0.17)" fill="#fff" font-size="17" font-family="SegoeUI, Segoe UI" letter-spacing="0.16em"><tspan x="0" y="0">საქართველო</tspan></text>
  <rect id="Rectangle_172" data-name="Rectangle 172" width="105.016" height="1.024" transform="translate(130.138 66.867)" fill="#fff"/>
</svg>
