<svg id="Group_1283" data-name="Group 1283" xmlns="http://www.w3.org/2000/svg" xmlns:xlink="http://www.w3.org/1999/xlink" width="42.113" height="40.079" viewBox="0 0 42.113 40.079">
  <defs>
    <clipPath id="clip-path">
      <rect id="Rectangle_118" data-name="Rectangle 118" width="42.113" height="40.079" fill="#3063aa"/>
    </clipPath>
  </defs>
  <g id="Group_1282" data-name="Group 1282" clip-path="url(#clip-path)">
    <path id="Path_35" data-name="Path 35" d="M74.444,24.29v-.577q0-10.653,0-21.306A2.439,2.439,0,0,1,74.873.822,2.11,2.11,0,0,1,77.125.083a2.072,2.072,0,0,1,1.5,1.876c.013.214.01.428.01.642q0,10.554,0,21.108v.715c.21-.2.337-.306.455-.425q3.189-3.2,6.375-6.407a2.074,2.074,0,0,1,2.382-.568,2.1,2.1,0,0,1,.893,3.243,4.567,4.567,0,0,1-.4.435Q83.3,25.754,78.259,30.8a2.148,2.148,0,0,1-3.429,0q-5.112-5.12-10.222-10.243a2.117,2.117,0,1,1,3-2.975q2.6,2.6,5.192,5.216c.509.512,1.014,1.028,1.52,1.543l.124-.057" transform="translate(-55.477 0)" fill="#3063aa"/>
    <path id="Path_36" data-name="Path 36" d="M21.064,276.194q-9.4,0-18.8,0a2.106,2.106,0,0,1-2.119-2.834,2.065,2.065,0,0,1,1.873-1.383c.163-.016.329-.008.493-.008q18.556,0,37.113,0a3.687,3.687,0,0,1,1.07.127,2.073,2.073,0,0,1,1.4,2.33,2.113,2.113,0,0,1-1.926,1.759c-.18.013-.362.006-.543.007H21.064" transform="translate(0 -236.116)" fill="#3063aa"/>
  </g>
</svg>
