<svg xmlns="http://www.w3.org/2000/svg" width="21.021" height="21.021" viewBox="0 0 21.021 21.021">
  <g id="Group_1027" data-name="Group 1027" transform="translate(-1703 -36)">
    <g id="Group_48" data-name="Group 48" transform="translate(1703 36)">
      <g id="Instagram-Logo.wine" transform="translate(0 0)">
        <path id="Path_19" data-name="Path 19" d="M27.511,17c-2.854,0-3.213.012-4.334.064a7.713,7.713,0,0,0-2.551.488,5.376,5.376,0,0,0-3.075,3.074,7.677,7.677,0,0,0-.488,2.551C17.013,24.3,17,24.656,17,27.511s.013,3.212.064,4.333a7.724,7.724,0,0,0,.488,2.551,5.379,5.379,0,0,0,3.073,3.075,7.72,7.72,0,0,0,2.551.488c1.121.051,1.479.063,4.333.063s3.212-.012,4.333-.063a7.724,7.724,0,0,0,2.552-.488,5.385,5.385,0,0,0,3.074-3.075,7.79,7.79,0,0,0,.488-2.551c.05-1.121.064-1.478.064-4.333s-.013-3.213-.064-4.334a7.787,7.787,0,0,0-.488-2.551,5.377,5.377,0,0,0-3.074-3.074,7.737,7.737,0,0,0-2.553-.488C30.72,17.012,30.364,17,27.508,17Zm-.943,1.894h.943c2.806,0,3.139.01,4.247.06a5.819,5.819,0,0,1,1.951.362A3.483,3.483,0,0,1,35.7,21.311a5.807,5.807,0,0,1,.362,1.951c.05,1.108.061,1.441.061,4.246s-.011,3.138-.061,4.246A5.813,5.813,0,0,1,35.7,33.7,3.485,3.485,0,0,1,33.71,35.7a5.8,5.8,0,0,1-1.951.362c-1.108.05-1.441.061-4.247.061s-3.139-.011-4.247-.061a5.831,5.831,0,0,1-1.952-.362,3.482,3.482,0,0,1-2-1.994,5.808,5.808,0,0,1-.362-1.951c-.05-1.108-.06-1.441-.06-4.248s.01-3.138.06-4.246a5.819,5.819,0,0,1,.362-1.951,3.483,3.483,0,0,1,2-2,5.806,5.806,0,0,1,1.952-.362c.97-.044,1.345-.057,3.3-.059Zm6.553,1.745A1.261,1.261,0,1,0,34.383,21.9a1.261,1.261,0,0,0-1.261-1.261Zm-5.61,1.474a5.4,5.4,0,1,0,5.4,5.4,5.4,5.4,0,0,0-5.4-5.4Zm0,1.894a3.5,3.5,0,1,1-3.5,3.5A3.5,3.5,0,0,1,27.511,24.007Z" transform="translate(-17 -17)" fill="#fff"/>
      </g>
    </g>
  </g>
</svg>
