<svg id="Group_1731" data-name="Group 1731" xmlns="http://www.w3.org/2000/svg" xmlns:xlink="http://www.w3.org/1999/xlink" width="35.07" height="31.434" viewBox="0 0 35.07 31.434">
  <defs>
    <clipPath id="clip-path">
      <rect id="Rectangle_303" data-name="Rectangle 303" width="35.07" height="31.434" fill="#f56e6e" stroke="#f56e6e" stroke-width="3"/>
    </clipPath>
  </defs>
  <g id="Group_1705" data-name="Group 1705" transform="translate(0 0)" clip-path="url(#clip-path)">
    <path id="Path_202" data-name="Path 202" d="M31.161,6.843A8.341,8.341,0,0,0,25.775.5a7.445,7.445,0,0,0-6.07.316,9.149,9.149,0,0,0-3.739,3.659c-.081.135-.158.273-.251.432-.255-.4-.469-.775-.715-1.124A7.961,7.961,0,0,0,9.11.07,7.741,7.741,0,0,0,3.4,1.723,8.909,8.909,0,0,0,.059,8.017a10.32,10.32,0,0,0,1.828,6.935A22.554,22.554,0,0,0,5.8,19.417c3.068,2.734,6.183,5.416,9.284,8.114a.933.933,0,0,0,1.328-.064c2.477-2.137,4.961-4.267,7.427-6.417a35.113,35.113,0,0,0,5.041-5.179,12.05,12.05,0,0,0,2.268-4.577c.118-.515.182-1.043.27-1.566V8.379c-.083-.512-.134-1.033-.255-1.536" transform="translate(1.827 1.827)" fill="#f56e6e" stroke="#f56e6e" stroke-width="3"/>
  </g>
</svg>
