<svg xmlns="http://www.w3.org/2000/svg" width="30.723" height="26.437" viewBox="0 0 30.723 26.437">
  <path id="Path_557" data-name="Path 557" d="M133.365,78.295q-7.016-5.137-14.039-10.266a.483.483,0,0,0-.691.024q-4.225,3.1-8.469,6.189c-1.857,1.358-3.721,2.709-5.575,4.074a2.107,2.107,0,0,0-.244,3.362,2.158,2.158,0,0,0,2.834.042l.143-.1V86.8l.01-.007q.005,3.5,0,7.009v.52h8.158v-.52c0-1.808-.014-3.616.007-5.428a3.462,3.462,0,0,1,3.389-3.428,3.4,3.4,0,0,1,3.557,3.183c.091,1.878.042,3.767.052,5.648v.548h8.154v-.559c0-1.92,0-3.84,0-5.759l.014.007v-6.4c.049.035.1.073.15.108a2.145,2.145,0,1,0,2.555-3.438Z" transform="translate(-103.622 -67.894)" fill="#c6c6c6"/>
</svg>
