<svg id="Iconly_Bold_Calling" data-name="Iconly/Bold/Calling" xmlns="http://www.w3.org/2000/svg" width="29" height="29" viewBox="0 0 29 29">
  <g id="Group" transform="translate(16.528)">
    <g id="Calling" transform="translate(0)">
      <path id="Fill_1" data-name="Fill 1" d="M1.479.022a1.248,1.248,0,0,0-.474,2.45A5.02,5.02,0,0,1,4.983,6.46h0A1.246,1.246,0,0,0,6.2,7.47a1.353,1.353,0,0,0,.24-.022,1.254,1.254,0,0,0,.982-1.466A7.5,7.5,0,0,0,1.479.022" transform="translate(0 5.038)" fill="#3063aa"/>
      <path id="Fill_3" data-name="Fill 3" d="M1.383.011A1.185,1.185,0,0,0,.476.267a1.251,1.251,0,0,0,.63,2.224,10.023,10.023,0,0,1,8.882,8.9A1.243,1.243,0,0,0,11.221,12.5a1.159,1.159,0,0,0,.142-.009,1.229,1.229,0,0,0,.833-.461,1.242,1.242,0,0,0,.263-.917A12.493,12.493,0,0,0,1.383.011" transform="translate(0.006)" fill="#3063aa"/>
    </g>
  </g>
  <g id="Call" transform="translate(0 1.45)">
    <path id="Stroke_1" data-name="Stroke 1" d="M13.1,14.46c5.784,5.783,7.1-.907,10.779,2.773,3.55,3.55,5.591,4.261,1.093,8.758-.563.453-4.144,5.9-16.725-6.677S1.1,3.15,1.557,2.587C6.067-1.923,6.765.13,10.316,3.679,14,7.361,7.312,8.677,13.1,14.46Z" transform="translate(0 0)" fill="#3063aa"/>
  </g>
</svg>
