<svg xmlns="http://www.w3.org/2000/svg" xmlns:xlink="http://www.w3.org/1999/xlink" width="19.871" height="19.865" viewBox="0 0 19.871 19.865">
  <defs>
    <radialGradient id="radial-gradient" cx="0.266" cy="1.077" r="0.991" gradientTransform="translate(-2.918 5.666) rotate(-90) scale(1 0.93)" gradientUnits="objectBoundingBox">
      <stop offset="0" stop-color="#fd5"/>
      <stop offset="0.1" stop-color="#fd5"/>
      <stop offset="0.5" stop-color="#ff543e"/>
      <stop offset="1" stop-color="#c837ab"/>
    </radialGradient>
  </defs>
  <g id="Instagram-Logo.wine_1_" data-name="Instagram-Logo.wine (1)" transform="translate(0)">
    <path id="Path_168" data-name="Path 168" d="M9.938,0C5.79,0,4.577,0,4.341.024A4.929,4.929,0,0,0,2.383.516a3.966,3.966,0,0,0-1.142.836A4.264,4.264,0,0,0,.091,3.768,17.93,17.93,0,0,0,0,6.7c0,.791,0,1.832,0,3.228,0,4.145,0,5.356.024,5.592A4.99,4.99,0,0,0,.5,17.44a4.185,4.185,0,0,0,2.713,2.216,7.049,7.049,0,0,0,1.443.191c.246.011,2.754.018,5.263.018s5.019,0,5.259-.015a6.788,6.788,0,0,0,1.495-.2,4.16,4.16,0,0,0,2.713-2.221,4.908,4.908,0,0,0,.468-1.882c.013-.171.019-2.9.019-5.625s-.006-5.45-.02-5.621a4.853,4.853,0,0,0-.478-1.9,3.938,3.938,0,0,0-.85-1.165A4.289,4.289,0,0,0,16.1.091,17.905,17.905,0,0,0,13.172,0Z" transform="translate(0)" fill="url(#radial-gradient)"/>
    <path id="Path_169" data-name="Path 169" d="M9.938,0C5.79,0,4.577,0,4.341.024A4.929,4.929,0,0,0,2.383.516a3.966,3.966,0,0,0-1.142.836A4.264,4.264,0,0,0,.091,3.768,17.93,17.93,0,0,0,0,6.7c0,.791,0,1.832,0,3.228,0,4.145,0,5.356.024,5.592A4.99,4.99,0,0,0,.5,17.44a4.185,4.185,0,0,0,2.713,2.216,7.049,7.049,0,0,0,1.443.191c.246.011,2.754.018,5.263.018s5.019,0,5.259-.015a6.788,6.788,0,0,0,1.495-.2,4.16,4.16,0,0,0,2.713-2.221,4.908,4.908,0,0,0,.468-1.882c.013-.171.019-2.9.019-5.625s-.006-5.45-.02-5.621a4.853,4.853,0,0,0-.478-1.9,3.938,3.938,0,0,0-.85-1.165A4.289,4.289,0,0,0,16.1.091,17.905,17.905,0,0,0,13.172,0Z" transform="translate(0)" fill="#3063aa"/>
    <path id="Path_170" data-name="Path 170" d="M24.336,17c-1.992,0-2.242.009-3.025.044a5.383,5.383,0,0,0-1.78.341,3.752,3.752,0,0,0-2.146,2.145,5.358,5.358,0,0,0-.341,1.78c-.035.782-.044,1.033-.044,3.025s.009,2.241.044,3.024a5.391,5.391,0,0,0,.341,1.78,3.754,3.754,0,0,0,2.145,2.146,5.388,5.388,0,0,0,1.781.341c.782.036,1.032.044,3.024.044s2.242-.009,3.024-.044a5.391,5.391,0,0,0,1.781-.341,3.759,3.759,0,0,0,2.145-2.146,5.437,5.437,0,0,0,.341-1.78c.035-.782.044-1.032.044-3.024s-.009-2.242-.044-3.025a5.435,5.435,0,0,0-.341-1.78,3.753,3.753,0,0,0-2.146-2.145,5.4,5.4,0,0,0-1.782-.341c-.782-.036-1.032-.044-3.024-.044Zm-.658,1.322h.658c1.959,0,2.191.007,2.964.042a4.061,4.061,0,0,1,1.362.253,2.431,2.431,0,0,1,1.392,1.392,4.053,4.053,0,0,1,.253,1.362c.035.773.043,1.006.043,2.963s-.008,2.19-.043,2.963a4.057,4.057,0,0,1-.253,1.362,2.433,2.433,0,0,1-1.392,1.391A4.047,4.047,0,0,1,27.3,30.3c-.773.035-1.006.043-2.964.043s-2.191-.008-2.964-.043a4.069,4.069,0,0,1-1.362-.253,2.43,2.43,0,0,1-1.393-1.392,4.053,4.053,0,0,1-.253-1.362c-.035-.773-.042-1.006-.042-2.964s.007-2.19.042-2.963a4.061,4.061,0,0,1,.253-1.362,2.431,2.431,0,0,1,1.393-1.393,4.052,4.052,0,0,1,1.362-.253c.677-.031.939-.04,2.306-.041Zm4.574,1.218a.88.88,0,1,0,.88.88.88.88,0,0,0-.88-.88Zm-3.916,1.029A3.767,3.767,0,1,0,28.1,24.336a3.767,3.767,0,0,0-3.767-3.767Zm0,1.322a2.445,2.445,0,1,1-2.445,2.445A2.445,2.445,0,0,1,24.336,21.89Z" transform="translate(-14.402 -14.402)" fill="#fff" stroke="#fff" stroke-width="0.2"/>
  </g>
</svg>
