<svg xmlns="http://www.w3.org/2000/svg" width="32.203" height="32.203" viewBox="0 0 32.203 32.203">
  <path id="iconmonstr-linkedin-3" d="M25.494,0H6.709A6.71,6.71,0,0,0,0,6.709V25.494A6.71,6.71,0,0,0,6.709,32.2H25.494A6.709,6.709,0,0,0,32.2,25.494V6.709A6.709,6.709,0,0,0,25.494,0ZM10.734,25.494H6.709V10.734h4.025ZM8.722,9.033A2.367,2.367,0,1,1,11.07,6.666,2.358,2.358,0,0,1,8.722,9.033ZM26.836,25.494H22.811V17.975c0-4.519-5.367-4.177-5.367,0v7.519H13.418V10.734h4.025V13.1c1.873-3.47,9.393-3.726,9.393,3.322Z" fill="#3063aa"/>
</svg>
