<svg id="sms-edit" xmlns="http://www.w3.org/2000/svg" width="30.526" height="30.526" viewBox="0 0 30.526 30.526">
  <path id="Vector" d="M0,0H30.526V30.526H0Z" fill="none" opacity="0"/>
  <path id="Vector-2" data-name="Vector" d="M19.079,0H6.36C2.544,0,0,1.908,0,6.36v8.9c0,4.452,2.544,6.36,6.36,6.36H10.9a1.264,1.264,0,0,0,1.259-1.412,8.4,8.4,0,0,1,.089-2.811,8.258,8.258,0,0,1,11.384-5.914,1.273,1.273,0,0,0,1.806-1.145V6.36C25.438,1.908,22.894,0,19.079,0Zm.6,7.11L15.7,10.29a4.91,4.91,0,0,1-5.953,0L5.762,7.11a.977.977,0,0,1-.153-1.348.951.951,0,0,1,1.336-.153l3.981,3.18a3.035,3.035,0,0,0,3.574,0l3.981-3.18a.939.939,0,0,1,1.336.153A.964.964,0,0,1,19.676,7.11Z" transform="translate(2.544 3.816)" fill="#dd4d40"/>
  <path id="Vector-3" data-name="Vector" d="M6.36,0a6.36,6.36,0,1,0,6.36,6.36A6.354,6.354,0,0,0,6.36,0ZM8.967,5.787,8.5,6.245,5.724,9.031a1.226,1.226,0,0,1-.547.267L3.93,9.476a.588.588,0,0,1-.7-.7L3.409,7.53a1.107,1.107,0,0,1,.267-.547l2.773-2.76.458-.471a1.482,1.482,0,0,1,1-.509,1.506,1.506,0,0,1,1.03.509A1.238,1.238,0,0,1,8.967,5.787Z" transform="translate(16.535 16.535)" fill="#dd4d40"/>
</svg>
