<svg xmlns="http://www.w3.org/2000/svg" width="24.444" height="19.866" viewBox="0 0 24.444 19.866">
  <g id="Group_1028" data-name="Group 1028" transform="translate(-1649 -37)">
    <g id="Group_49" data-name="Group 49" transform="translate(1649 37)">
      <g id="Group_46" data-name="Group 46" transform="translate(0 0)">
        <path id="Path_7" data-name="Path 7" d="M153.515,374.1a14.263,14.263,0,0,0,21.941-12.665,10.152,10.152,0,0,0,2.5-2.6,9.968,9.968,0,0,1-2.88.789,5.019,5.019,0,0,0,2.2-2.774,10.049,10.049,0,0,1-3.184,1.218,5.018,5.018,0,0,0-8.546,4.574,14.229,14.229,0,0,1-10.336-5.241,5.021,5.021,0,0,0,1.552,6.7,5,5,0,0,1-2.272-.628,5.02,5.02,0,0,0,4.022,4.981,5,5,0,0,1-2.264.085,5.016,5.016,0,0,0,4.684,3.483A10.081,10.081,0,0,1,153.515,374.1Z" transform="translate(-153.515 -356.485)" fill="#3063aa"/>
      </g>
    </g>
  </g>
</svg>
