<svg id="YouTube-Logo.wine" xmlns="http://www.w3.org/2000/svg" width="86.125" height="60.302" viewBox="0 0 86.125 60.302">
  <g id="g7433">
    <path id="path7429" d="M84.351,9.435A10.791,10.791,0,0,0,76.76,1.845C70.021,0,43.062,0,43.062,0S16.1,0,9.364,1.774A11.012,11.012,0,0,0,1.774,9.435C0,16.175,0,30.151,0,30.151S0,44.2,1.774,50.866a10.791,10.791,0,0,0,7.591,7.591c6.811,1.845,33.7,1.845,33.7,1.845s26.958,0,33.7-1.774a10.791,10.791,0,0,0,7.591-7.591c1.774-6.74,1.774-20.715,1.774-20.715S86.2,16.175,84.351,9.435Z" fill="red"/>
    <path id="polygon7431" d="M48.6,24.3V50.123L71.018,37.212Z" transform="translate(-14.122 -7.061)" fill="#fff"/>
  </g>
</svg>
